# xmcd
#
# Track frame offsets:
# 150
# 14026
# 29547
# 33425
# 44168
# 67902
# 85955
# 102236
# 115735
# 130365
# 146251
# 148897
#
# Disc length: 2223 seconds
#
#
# Revision: 2
# Processed by: cddbd v1.5.2PL0 Copyright (c) Steve Scherf et al.
# Submitted via: FreeRIP 2.945 
#
DISCID=b008ad0c
DTITLE=Bill Anderson - Country Music Heaven
DYEAR=1900
DGENRE=Country
TTITLE0=Drinking From My Saucer
TTITLE1=The Touch Of The Master's Hand
TTITLE2=I Said A Prayer For You Today
TTITLE3=Friends
TTITLE4=Ol' Doc Brown
TTITLE5=Country Music Heaven
TTITLE6=Footprints In The Sand
TTITLE7=One Solitary Life
TTITLE8=Trouble In The Amen Corner
TTITLE9=The Farmer And The Lord
TTITLE10=The Serenity Prayer
TTITLE11=Whispering Hope
EXTD=
EXTT0=
EXTT1=
EXTT2=
EXTT3=
EXTT4=
EXTT5=
EXTT6=
EXTT7=
EXTT8=
EXTT9=
EXTT10=
EXTT11=
PLAYORDER=
